#N canvas 238 238 883 613 10;
#X obj 381 39 inlet;
#X obj 382 122 sel 1;
#X obj 443 122 sel 0;
#X obj 40 153 soundfiler;
#X obj 40 329 * 1000;
#X obj 40 282 / 44100;
#X obj 79 250 samplerate~;
#X obj 79 218 loadbang;
#X obj 80 188 s \$0-len;
#X obj 35 519 table \$0-fileLooperBuffer;
#X obj 323 279 pack 0 f;
#X obj 339 464 tabplay~ \$0-fileLooperBuffer;
#X obj 339 517 outlet~;
#X msg 535 412 stop;
#X obj 528 477 line~;
#X msg 637 316 0 300;
#X obj 524 319 delay 300;
#X text 407 212 when the loop is stopped we do a short fade out. the
stop message is delayed of the same amount of time;
#X obj 171 47 f \$0;
#X obj 171 23 loadbang;
#X msg 40 112 read -resize \$1 \$2-fileLooperBuffer;
#X text 25 19 \$1 = creation argument;
#X obj 40 47 symbol \$1;
#X text 204 41 stores the incremental number of this abstraction;
#X obj 40 79 pack s f;
#X obj 566 393 bng 15 250 50 0 empty empty empty 17 7 0 10 -262144
-1 -1;
#X msg 375 308 1;
#X obj 368 253 r \$0-len;
#X obj 336 158 t b b;
#X msg 407 306 0;
#X obj 524 293 t b b b;
#X text 228 168 bangs R to L - opens the gate - triggers the list that
goes to tabplay~;
#X text 143 320 delays the bang to loop the sound;
#X text 382 376 ^^ lets messages pass depending on what has been received
in the first outlet;
#X obj 339 493 *~;
#X obj 268 345 delay 3000;
#X obj 328 371 bng 15 250 50 0 empty empty empty 17 7 0 10 -262144
-1 -1;
#X text 167 372 this is important! -> a number in the left inlet sets
the delay time... this converts our packed list to a simple bang;
#X obj 367 356 spigot;
#X connect 0 0 1 0;
#X connect 0 0 2 0;
#X connect 1 0 28 0;
#X connect 2 0 30 0;
#X connect 3 0 5 0;
#X connect 3 0 8 0;
#X connect 4 0 35 1;
#X connect 5 0 4 0;
#X connect 6 0 5 1;
#X connect 7 0 6 0;
#X connect 10 0 38 0;
#X connect 11 0 12 0;
#X connect 11 0 34 0;
#X connect 13 0 11 0;
#X connect 13 0 35 0;
#X connect 14 0 34 1;
#X connect 15 0 14 0;
#X connect 16 0 13 0;
#X connect 18 0 24 1;
#X connect 19 0 18 0;
#X connect 19 0 22 0;
#X connect 20 0 3 0;
#X connect 22 0 24 0;
#X connect 24 0 20 0;
#X connect 26 0 38 1;
#X connect 27 0 10 1;
#X connect 28 0 10 0;
#X connect 28 1 26 0;
#X connect 29 0 38 1;
#X connect 30 0 16 0;
#X connect 30 1 15 0;
#X connect 30 2 29 0;
#X connect 34 0 12 0;
#X connect 35 0 10 0;
#X connect 36 0 35 0;
#X connect 38 0 11 0;
#X connect 38 0 36 0;
