#N canvas 379 129 756 710 10;
#N canvas 0 22 450 278 (subpatch) 0;
#X array table1 600 float 2;
#X coords 0 1 600 -1 100 80 1 0 0;
#X restore 376 38 graph;
#X obj 25 43 /;
#X obj 25 97 soundfiler;
#X msg 25 70 read -resize ../assets/AKWF_nes_square.wav table1;
#X obj 26 351 s baseFrequency;
#X obj 26 326 /;
#X obj 26 301 samplerate~;
#X obj 504 244 until;
#X obj 504 266 f 1;
#X obj 531 220 r stopIterating;
#X obj 504 447 s stopIterating;
#X obj 221 327 f;
#X text 209 310 original;
#X obj 288 326 f;
#X obj 504 388 >=;
#X obj 531 364 f;
#X obj 257 351 /;
#X obj 31 385 f;
#X obj 329 197 + 3;
#X obj 64 156 s originalLength;
#X obj 236 278 r originalLength;
#X obj 546 340 r originalLength;
#X obj 25 126 t b b f;
#X obj 44 184 s computeLength;
#N canvas 0 22 450 278 (subpatch) 0;
#X array table2 1027 float 2;
#X coords 0 1 1027 -1 100 80 1 0 0;
#X restore 490 39 graph;
#X obj 257 426 until;
#X obj 257 448 f 0;
#X obj 308 450 r originalLength;
#X obj 257 507 >=;
#X obj 257 535 sel 0;
#X obj 92 652 tabread4 table1;
#X obj 218 561 f;
#X obj 246 612 +;
#X obj 62 384 r resamplingRatio;
#X obj 110 695 tabwrite table2;
#X obj 197 637 f 0;
#X obj 197 659 t f f;
#X obj 244 642 + 1;
#X obj 178 586 t f b f;
#X floatatom 374 382 5 0 0 0 - - -;
#X floatatom 174 157 5 0 0 0 - - -;
#X obj 504 192 r computeLength;
#X obj 504 294 << 1;
#X obj 549 244 print stop;
#X obj 504 417 sel 1;
#X obj 504 319 t f b f f;
#X floatatom 317 328 5 0 0 0 - - -;
#X text 352 328 destination;
#X obj 257 380 s resamplingStep;
#X obj 260 583 r resamplingStep;
#X obj 287 304 t b f f;
#X obj 249 560 bng 15 250 50 0 empty empty empty 17 7 0 10 -262144
-1 -1;
#X obj 213 396 bng 15 250 50 0 empty empty empty 17 7 0 10 -262144
-1 -1;
#X obj 307 513 bng 15 250 50 0 empty empty empty 17 7 0 10 -262144
-1 -1;
#X obj 211 420 t b b;
#X msg 210 446 0;
#X obj 230 477 t f f;
#X msg 329 219 resize \$1;
#X obj 380 256 s table2;
#X obj 379 186 f;
#X obj 289 156 t b b b b b;
#X obj 289 131 r stopIterating;
#X connect 1 0 3 0;
#X connect 2 0 22 0;
#X connect 3 0 2 0;
#X connect 5 0 4 0;
#X connect 6 0 5 0;
#X connect 7 0 8 0;
#X connect 8 0 42 0;
#X connect 9 0 7 1;
#X connect 9 0 43 0;
#X connect 11 0 16 0;
#X connect 13 0 16 1;
#X connect 14 0 44 0;
#X connect 15 0 14 1;
#X connect 16 0 39 0;
#X connect 16 0 48 0;
#X connect 18 0 57 0;
#X connect 20 0 11 1;
#X connect 21 0 15 1;
#X connect 22 0 6 0;
#X connect 22 1 23 0;
#X connect 22 2 19 0;
#X connect 22 2 40 0;
#X connect 25 0 26 0;
#X connect 26 0 56 0;
#X connect 27 0 28 1;
#X connect 28 0 29 0;
#X connect 29 0 51 0;
#X connect 29 1 53 0;
#X connect 30 0 34 0;
#X connect 31 0 38 0;
#X connect 32 0 26 1;
#X connect 33 0 17 1;
#X connect 35 0 36 0;
#X connect 36 0 34 1;
#X connect 36 1 37 0;
#X connect 37 0 35 1;
#X connect 38 0 30 0;
#X connect 38 1 35 0;
#X connect 38 2 32 0;
#X connect 41 0 7 0;
#X connect 42 0 45 0;
#X connect 44 0 10 0;
#X connect 45 0 14 0;
#X connect 45 1 15 0;
#X connect 45 2 50 0;
#X connect 45 2 59 1;
#X connect 45 3 8 1;
#X connect 49 0 32 1;
#X connect 50 0 13 0;
#X connect 50 1 13 1;
#X connect 50 2 46 0;
#X connect 51 0 31 0;
#X connect 52 0 54 0;
#X connect 53 0 25 1;
#X connect 54 0 25 0;
#X connect 54 1 55 0;
#X connect 55 0 26 1;
#X connect 55 0 31 1;
#X connect 55 0 35 1;
#X connect 56 0 28 0;
#X connect 56 1 31 1;
#X connect 57 0 58 0;
#X connect 59 0 18 0;
#X connect 60 2 52 0;
#X connect 60 3 11 0;
#X connect 60 4 59 0;
#X connect 61 0 60 0;
