#N canvas 379 129 756 710 10;
#N canvas 0 22 450 278 (subpatch) 0;
#X array table1 600 float 2;
#X coords 0 1 600 -1 100 80 1 0 0;
#X restore 376 38 graph;
#X obj 25 43 /;
#X obj 25 97 soundfiler;
#X msg 25 70 read -resize ../assets/AKWF_nes_square.wav table1;
#X obj 26 351 s baseFrequency;
#X obj 26 326 /;
#X obj 26 301 samplerate~;
#X obj 504 244 until;
#X obj 504 266 f 1;
#X obj 531 220 r stopIterating;
#X obj 504 447 s stopIterating;
#X obj 282 326 f;
#X text 269 306 original;
#X obj 233 325 f;
#X obj 504 388 >=;
#X obj 531 364 f;
#X obj 257 351 /;
#X obj 31 385 f;
#X obj 290 230 + 3;
#X obj 64 156 s originalLength;
#X obj 297 289 r originalLength;
#X obj 546 340 r originalLength;
#X obj 25 126 t b b f;
#X obj 44 184 s computeLength;
#X msg 290 252 \; table2 resize \$1;
#N canvas 0 22 450 278 (subpatch) 0;
#X array table2 600 float 2;
#X coords 0 1 600 -1 100 80 1 0 0;
#X restore 490 39 graph;
#X obj 257 426 until;
#X obj 257 448 f 0;
#X obj 308 450 r originalLength;
#X obj 250 189 t b b b b f;
#X obj 257 477 >=;
#X obj 257 505 sel 0;
#X obj 92 622 tabread4 table1;
#X obj 222 527 f;
#X obj 246 582 +;
#X obj 260 553 r resamplingRatio;
#X obj 257 380 s resamplingRatio;
#X obj 62 384 r resamplingRatio;
#X obj 110 665 tabwrite table2;
#X obj 197 607 f 0;
#X obj 197 629 t f f;
#X obj 244 612 + 1;
#X obj 178 556 t f b f;
#X floatatom 374 382 5 0 0 0 - - -;
#X floatatom 174 157 5 0 0 0 - - -;
#X obj 504 192 r computeLength;
#X obj 504 294 << 1;
#X obj 549 244 print stop;
#X obj 504 417 sel 1;
#X obj 504 319 t f b f f;
#X floatatom 191 327 5 0 0 0 - - -;
#X text 185 306 destination;
#X connect 1 0 3 0;
#X connect 2 0 22 0;
#X connect 3 0 2 0;
#X connect 5 0 4 0;
#X connect 6 0 5 0;
#X connect 7 0 8 0;
#X connect 8 0 46 0;
#X connect 9 0 7 1;
#X connect 9 0 47 0;
#X connect 11 0 16 1;
#X connect 13 0 16 0;
#X connect 14 0 48 0;
#X connect 15 0 14 1;
#X connect 16 0 36 0;
#X connect 16 0 43 0;
#X connect 18 0 24 0;
#X connect 20 0 11 1;
#X connect 21 0 15 1;
#X connect 22 0 6 0;
#X connect 22 1 23 0;
#X connect 22 2 19 0;
#X connect 22 2 44 0;
#X connect 26 0 27 0;
#X connect 27 0 30 0;
#X connect 27 0 33 1;
#X connect 28 0 30 1;
#X connect 29 0 13 0;
#X connect 29 1 11 0;
#X connect 29 3 18 0;
#X connect 29 4 18 1;
#X connect 30 0 31 0;
#X connect 31 0 33 0;
#X connect 31 1 26 1;
#X connect 32 0 38 0;
#X connect 33 0 42 0;
#X connect 35 0 34 1;
#X connect 37 0 17 1;
#X connect 39 0 40 0;
#X connect 40 0 38 1;
#X connect 40 1 41 0;
#X connect 41 0 39 1;
#X connect 42 0 32 0;
#X connect 42 1 39 0;
#X connect 42 2 34 0;
#X connect 45 0 7 0;
#X connect 46 0 49 0;
#X connect 48 0 10 0;
#X connect 48 0 29 0;
#X connect 49 0 14 0;
#X connect 49 1 15 0;
#X connect 49 2 13 1;
#X connect 49 2 50 0;
#X connect 49 3 8 1;
