#N canvas 589 22 805 789 10;
#N canvas 0 22 450 278 (subpatch) 0;
#X array \$0-table1 600 float 2;
#X coords 0 1 600 -1 100 80 1 0 0;
#X restore 376 -29 graph;
#X obj 25 90 soundfiler;
#X obj 504 177 until;
#X obj 504 199 f 1;
#X obj 531 153 r stopIterating;
#X obj 504 380 s stopIterating;
#X obj 221 260 f;
#X text 209 243 original;
#X obj 288 259 f;
#X obj 504 321 >=;
#X obj 531 297 f;
#X obj 257 284 /;
#X obj 329 130 + 3;
#X obj 64 149 s originalLength;
#X obj 236 211 r originalLength;
#X obj 546 273 r originalLength;
#X obj 25 178 s computeLength;
#X obj 257 359 until;
#X obj 257 381 f 0;
#X obj 308 383 r originalLength;
#X obj 257 440 >=;
#X obj 257 468 sel 0;
#X obj 218 494 f;
#X obj 246 545 +;
#X obj 197 570 f 0;
#X obj 197 592 t f f;
#X obj 244 575 + 1;
#X obj 178 519 t f b f;
#X floatatom 374 315 5 0 0 0 - - -;
#X floatatom 26 214 5 0 0 0 - - -;
#X obj 504 125 r computeLength;
#X obj 504 227 << 1;
#X obj 549 177 print stop;
#X obj 504 350 sel 1;
#X obj 504 252 t f b f f;
#X floatatom 317 261 5 0 0 0 - - -;
#X text 352 261 destination;
#X obj 257 313 s resamplingStep;
#X obj 260 516 r resamplingStep;
#X obj 287 237 t b f f;
#X obj 249 493 bng 15 250 50 0 empty empty empty 17 7 0 10 -262144
-1 -1;
#X obj 213 329 bng 15 250 50 0 empty empty empty 17 7 0 10 -262144
-1 -1;
#X obj 307 446 bng 15 250 50 0 empty empty empty 17 7 0 10 -262144
-1 -1;
#X obj 211 353 t b b;
#X msg 210 379 0;
#X obj 230 410 t f f;
#X msg 329 152 resize \$1;
#X obj 379 119 f;
#X obj 289 89 t b b b b b;
#X obj 289 64 r stopIterating;
#X text 379 401 last step: copy the first three samples;
#X obj 329 471 t b b;
#X obj 402 426 until;
#X obj 402 500 < 3;
#X obj 402 448 f 0;
#X obj 512 558 f;
#X obj 451 447 + 1;
#X obj 402 522 sel 0;
#X obj 396 655 +;
#X obj 509 592 t f f;
#X obj 470 532 bng 15 250 50 0 empty empty empty 17 7 0 10 -262144
-1 -1;
#X obj 402 475 t f f f;
#X obj 507 623 tabread4 \$2;
#X obj 507 653 tabwrite \$2;
#X obj 380 189 s \$2;
#X obj 110 628 tabwrite \$2;
#X obj 92 585 tabread4 \$0-table1;
#X obj 429 285 f;
#X obj 429 310 s destSize;
#X text 17 -53 args: waveformResampler path destTable NOTE: the destFrequency
in output is accurate just for single-cycle waveforms;
#X obj 573 541 outlet;
#X obj 572 501 /;
#X obj 572 476 samplerate~;
#X obj 572 438 r destSize;
#X obj 676 456 t b f;
#X obj 25 119 t b f f;
#X text 62 214 Original Size;
#X floatatom 26 234 5 0 0 0 - - -;
#X text 62 234 Destination Size;
#X floatatom 26 254 5 0 0 0 - - -;
#X text 62 254 Destination Frequency;
#X obj 159 198 r destSize;
#X obj 25 7 inlet;
#X msg 25 63 read -resize \$1 \$2-table1;
#X obj 24 35 list append \$1 \$0;
#X connect 1 0 75 0;
#X connect 2 0 3 0;
#X connect 3 0 31 0;
#X connect 4 0 2 1;
#X connect 4 0 32 0;
#X connect 6 0 11 0;
#X connect 8 0 11 1;
#X connect 9 0 33 0;
#X connect 10 0 9 1;
#X connect 11 0 28 0;
#X connect 11 0 37 0;
#X connect 12 0 46 0;
#X connect 14 0 6 1;
#X connect 15 0 10 1;
#X connect 17 0 18 0;
#X connect 18 0 45 0;
#X connect 19 0 20 1;
#X connect 20 0 21 0;
#X connect 21 0 40 0;
#X connect 21 1 51 0;
#X connect 22 0 27 0;
#X connect 23 0 18 1;
#X connect 24 0 25 0;
#X connect 25 0 65 1;
#X connect 25 1 26 0;
#X connect 26 0 24 1;
#X connect 27 0 66 0;
#X connect 27 1 24 0;
#X connect 27 2 23 0;
#X connect 30 0 2 0;
#X connect 31 0 34 0;
#X connect 33 0 5 0;
#X connect 33 0 67 0;
#X connect 34 0 9 0;
#X connect 34 1 10 0;
#X connect 34 2 39 0;
#X connect 34 2 47 1;
#X connect 34 2 67 1;
#X connect 34 3 3 1;
#X connect 35 0 58 1;
#X connect 38 0 23 1;
#X connect 39 0 8 0;
#X connect 39 1 8 1;
#X connect 39 2 35 0;
#X connect 40 0 22 0;
#X connect 41 0 43 0;
#X connect 42 0 17 1;
#X connect 43 0 17 0;
#X connect 43 1 44 0;
#X connect 44 0 18 1;
#X connect 44 0 22 1;
#X connect 44 0 24 1;
#X connect 44 0 54 1;
#X connect 45 0 20 0;
#X connect 45 1 22 1;
#X connect 46 0 64 0;
#X connect 47 0 12 0;
#X connect 48 2 41 0;
#X connect 48 3 6 0;
#X connect 48 4 47 0;
#X connect 49 0 48 0;
#X connect 51 0 52 0;
#X connect 51 1 42 0;
#X connect 52 0 54 0;
#X connect 53 0 57 0;
#X connect 54 0 61 0;
#X connect 55 0 59 0;
#X connect 56 0 54 1;
#X connect 57 0 52 1;
#X connect 57 1 60 0;
#X connect 58 0 63 1;
#X connect 59 0 62 0;
#X connect 59 1 58 0;
#X connect 60 0 55 0;
#X connect 61 0 53 0;
#X connect 61 1 56 0;
#X connect 61 2 55 1;
#X connect 62 0 63 0;
#X connect 66 0 65 0;
#X connect 67 0 68 0;
#X connect 71 0 70 0;
#X connect 71 0 79 0;
#X connect 72 0 71 0;
#X connect 73 0 74 0;
#X connect 74 0 72 0;
#X connect 74 1 71 1;
#X connect 75 0 16 0;
#X connect 75 1 13 0;
#X connect 75 2 29 0;
#X connect 81 0 77 0;
#X connect 82 0 84 0;
#X connect 83 0 1 0;
#X connect 84 0 83 0;
#X coords 0 789 1 788 200 63 0;
